<svg xmlns="http://www.w3.org/2000/svg" xmlns:xlink="http://www.w3.org/1999/xlink" width="800" zoomAndPan="magnify" viewBox="0 0 600 37.5" height="50" preserveAspectRatio="xMidYMid meet" version="1.0"><defs><g/><clipPath id="29a71eb5c7"><path d="M 3.949219 7.128906 L 596.050781 7.128906 L 596.050781 29.875 L 3.949219 29.875 Z M 3.949219 7.128906 " clip-rule="nonzero"/></clipPath></defs><g clip-path="url(#29a71eb5c7)"><path fill="#fa0000" d="M 3.949219 7.128906 L 596.082031 7.128906 L 596.082031 29.875 L 3.949219 29.875 Z M 3.949219 7.128906 " fill-opacity="1" fill-rule="nonzero"/></g><g fill="#ffffff" fill-opacity="1"><g transform="translate(99.967872, 21.932403)"><g><path d="M 1.890625 -7.9375 L 1.890625 -2.921875 C 1.890625 -2.210938 2.0625 -1.6875 2.40625 -1.34375 C 2.75 -1 3.226562 -0.828125 3.84375 -0.828125 C 4.457031 -0.828125 4.9375 -1 5.28125 -1.34375 C 5.625 -1.6875 5.796875 -2.210938 5.796875 -2.921875 L 5.796875 -7.9375 L 6.828125 -7.9375 L 6.828125 -2.921875 C 6.828125 -2.265625 6.691406 -1.707031 6.421875 -1.25 C 6.160156 -0.800781 5.804688 -0.46875 5.359375 -0.25 C 4.910156 -0.03125 4.40625 0.078125 3.84375 0.078125 C 3.28125 0.078125 2.769531 -0.03125 2.3125 -0.25 C 1.863281 -0.46875 1.507812 -0.800781 1.25 -1.25 C 0.988281 -1.707031 0.859375 -2.265625 0.859375 -2.921875 L 0.859375 -7.9375 Z M 1.890625 -7.9375 "/></g></g></g><g fill="#ffffff" fill-opacity="1"><g transform="translate(107.648996, 21.932403)"><g><path d="M 1.90625 -8.421875 L 1.90625 0 L 0.875 0 L 0.875 -8.421875 Z M 1.90625 -8.421875 "/></g></g></g><g fill="#ffffff" fill-opacity="1"><g transform="translate(110.448341, 21.932403)"><g><path d="M 2.140625 -5.390625 L 2.140625 -1.703125 C 2.140625 -1.398438 2.203125 -1.1875 2.328125 -1.0625 C 2.460938 -0.9375 2.6875 -0.875 3 -0.875 L 3.765625 -0.875 L 3.765625 0 L 2.84375 0 C 2.257812 0 1.820312 -0.128906 1.53125 -0.390625 C 1.25 -0.660156 1.109375 -1.097656 1.109375 -1.703125 L 1.109375 -5.390625 L 0.296875 -5.390625 L 0.296875 -6.234375 L 1.109375 -6.234375 L 1.109375 -7.8125 L 2.140625 -7.8125 L 2.140625 -6.234375 L 3.765625 -6.234375 L 3.765625 -5.390625 Z M 2.140625 -5.390625 "/></g></g></g><g fill="#ffffff" fill-opacity="1"><g transform="translate(114.590462, 21.932403)"><g><path d="M 1.40625 -7.25 C 1.207031 -7.25 1.039062 -7.316406 0.90625 -7.453125 C 0.769531 -7.597656 0.703125 -7.769531 0.703125 -7.96875 C 0.703125 -8.164062 0.769531 -8.332031 0.90625 -8.46875 C 1.039062 -8.601562 1.207031 -8.671875 1.40625 -8.671875 C 1.601562 -8.671875 1.765625 -8.601562 1.890625 -8.46875 C 2.023438 -8.332031 2.09375 -8.164062 2.09375 -7.96875 C 2.09375 -7.769531 2.023438 -7.597656 1.890625 -7.453125 C 1.765625 -7.316406 1.601562 -7.25 1.40625 -7.25 Z M 1.90625 -6.234375 L 1.90625 0 L 0.875 0 L 0.875 -6.234375 Z M 1.90625 -6.234375 "/></g></g></g><g fill="#ffffff" fill-opacity="1"><g transform="translate(117.389807, 21.932403)"><g><path d="M 8.390625 -6.359375 C 8.867188 -6.359375 9.296875 -6.253906 9.671875 -6.046875 C 10.054688 -5.847656 10.359375 -5.546875 10.578125 -5.140625 C 10.796875 -4.742188 10.90625 -4.253906 10.90625 -3.671875 L 10.90625 0 L 9.890625 0 L 9.890625 -3.53125 C 9.890625 -4.15625 9.734375 -4.628906 9.421875 -4.953125 C 9.117188 -5.285156 8.703125 -5.453125 8.171875 -5.453125 C 7.640625 -5.453125 7.210938 -5.28125 6.890625 -4.9375 C 6.566406 -4.59375 6.40625 -4.09375 6.40625 -3.4375 L 6.40625 0 L 5.390625 0 L 5.390625 -3.53125 C 5.390625 -4.15625 5.234375 -4.628906 4.921875 -4.953125 C 4.617188 -5.285156 4.203125 -5.453125 3.671875 -5.453125 C 3.140625 -5.453125 2.710938 -5.28125 2.390625 -4.9375 C 2.066406 -4.59375 1.90625 -4.09375 1.90625 -3.4375 L 1.90625 0 L 0.875 0 L 0.875 -6.234375 L 1.90625 -6.234375 L 1.90625 -5.34375 C 2.113281 -5.664062 2.390625 -5.914062 2.734375 -6.09375 C 3.078125 -6.269531 3.460938 -6.359375 3.890625 -6.359375 C 4.410156 -6.359375 4.867188 -6.238281 5.265625 -6 C 5.671875 -5.769531 5.972656 -5.425781 6.171875 -4.96875 C 6.347656 -5.40625 6.632812 -5.742188 7.03125 -5.984375 C 7.4375 -6.234375 7.890625 -6.359375 8.390625 -6.359375 Z M 8.390625 -6.359375 "/></g></g></g><g fill="#ffffff" fill-opacity="1"><g transform="translate(129.110642, 21.932403)"><g><path d="M 0.484375 -3.140625 C 0.484375 -3.773438 0.613281 -4.332031 0.875 -4.8125 C 1.132812 -5.300781 1.488281 -5.675781 1.9375 -5.9375 C 2.394531 -6.207031 2.898438 -6.34375 3.453125 -6.34375 C 3.992188 -6.34375 4.46875 -6.222656 4.875 -5.984375 C 5.28125 -5.753906 5.582031 -5.460938 5.78125 -5.109375 L 5.78125 -6.234375 L 6.828125 -6.234375 L 6.828125 0 L 5.78125 0 L 5.78125 -1.15625 C 5.570312 -0.789062 5.265625 -0.488281 4.859375 -0.25 C 4.453125 -0.0078125 3.976562 0.109375 3.4375 0.109375 C 2.882812 0.109375 2.382812 -0.0234375 1.9375 -0.296875 C 1.488281 -0.578125 1.132812 -0.960938 0.875 -1.453125 C 0.613281 -1.953125 0.484375 -2.515625 0.484375 -3.140625 Z M 5.78125 -3.125 C 5.78125 -3.601562 5.679688 -4.015625 5.484375 -4.359375 C 5.296875 -4.710938 5.039062 -4.976562 4.71875 -5.15625 C 4.394531 -5.34375 4.039062 -5.4375 3.65625 -5.4375 C 3.269531 -5.4375 2.914062 -5.34375 2.59375 -5.15625 C 2.28125 -4.976562 2.023438 -4.710938 1.828125 -4.359375 C 1.640625 -4.015625 1.546875 -3.609375 1.546875 -3.140625 C 1.546875 -2.660156 1.640625 -2.242188 1.828125 -1.890625 C 2.023438 -1.535156 2.28125 -1.265625 2.59375 -1.078125 C 2.914062 -0.898438 3.269531 -0.8125 3.65625 -0.8125 C 4.039062 -0.8125 4.394531 -0.898438 4.71875 -1.078125 C 5.039062 -1.265625 5.296875 -1.535156 5.484375 -1.890625 C 5.679688 -2.242188 5.78125 -2.65625 5.78125 -3.125 Z M 5.78125 -3.125 "/></g></g></g><g fill="#ffffff" fill-opacity="1"><g transform="translate(136.80315, 21.932403)"><g/></g></g><g fill="#ffffff" fill-opacity="1"><g transform="translate(139.841466, 21.932403)"><g><path d="M 4.46875 0.078125 C 3.738281 0.078125 3.066406 -0.09375 2.453125 -0.4375 C 1.847656 -0.78125 1.367188 -1.257812 1.015625 -1.875 C 0.660156 -2.5 0.484375 -3.195312 0.484375 -3.96875 C 0.484375 -4.75 0.660156 -5.445312 1.015625 -6.0625 C 1.367188 -6.6875 1.847656 -7.171875 2.453125 -7.515625 C 3.066406 -7.859375 3.738281 -8.03125 4.46875 -8.03125 C 5.21875 -8.03125 5.894531 -7.859375 6.5 -7.515625 C 7.113281 -7.171875 7.59375 -6.691406 7.9375 -6.078125 C 8.289062 -5.460938 8.46875 -4.757812 8.46875 -3.96875 C 8.46875 -3.1875 8.289062 -2.488281 7.9375 -1.875 C 7.59375 -1.257812 7.113281 -0.78125 6.5 -0.4375 C 5.894531 -0.09375 5.21875 0.078125 4.46875 0.078125 Z M 4.46875 -0.8125 C 5.03125 -0.8125 5.53125 -0.941406 5.96875 -1.203125 C 6.414062 -1.460938 6.765625 -1.832031 7.015625 -2.3125 C 7.273438 -2.789062 7.40625 -3.34375 7.40625 -3.96875 C 7.40625 -4.613281 7.273438 -5.171875 7.015625 -5.640625 C 6.765625 -6.117188 6.414062 -6.484375 5.96875 -6.734375 C 5.53125 -6.992188 5.03125 -7.125 4.46875 -7.125 C 3.914062 -7.125 3.414062 -6.992188 2.96875 -6.734375 C 2.53125 -6.484375 2.179688 -6.117188 1.921875 -5.640625 C 1.671875 -5.171875 1.546875 -4.613281 1.546875 -3.96875 C 1.546875 -3.34375 1.671875 -2.789062 1.921875 -2.3125 C 2.179688 -1.832031 2.53125 -1.460938 2.96875 -1.203125 C 3.414062 -0.941406 3.914062 -0.8125 4.46875 -0.8125 Z M 4.46875 -0.8125 "/></g></g></g><g fill="#ffffff" fill-opacity="1"><g transform="translate(148.785712, 21.932403)"><g><path d="M 1.90625 -5.09375 C 2.113281 -5.445312 2.421875 -5.742188 2.828125 -5.984375 C 3.234375 -6.222656 3.707031 -6.34375 4.25 -6.34375 C 4.800781 -6.34375 5.300781 -6.207031 5.75 -5.9375 C 6.207031 -5.675781 6.5625 -5.300781 6.8125 -4.8125 C 7.070312 -4.332031 7.203125 -3.773438 7.203125 -3.140625 C 7.203125 -2.515625 7.070312 -1.953125 6.8125 -1.453125 C 6.5625 -0.960938 6.207031 -0.578125 5.75 -0.296875 C 5.300781 -0.0234375 4.800781 0.109375 4.25 0.109375 C 3.71875 0.109375 3.25 -0.0078125 2.84375 -0.25 C 2.4375 -0.488281 2.125 -0.789062 1.90625 -1.15625 L 1.90625 2.96875 L 0.875 2.96875 L 0.875 -6.234375 L 1.90625 -6.234375 Z M 6.15625 -3.140625 C 6.15625 -3.609375 6.054688 -4.015625 5.859375 -4.359375 C 5.671875 -4.710938 5.414062 -4.976562 5.09375 -5.15625 C 4.769531 -5.34375 4.414062 -5.4375 4.03125 -5.4375 C 3.65625 -5.4375 3.304688 -5.34375 2.984375 -5.15625 C 2.660156 -4.976562 2.398438 -4.710938 2.203125 -4.359375 C 2.003906 -4.003906 1.90625 -3.59375 1.90625 -3.125 C 1.90625 -2.65625 2.003906 -2.242188 2.203125 -1.890625 C 2.398438 -1.535156 2.660156 -1.265625 2.984375 -1.078125 C 3.304688 -0.898438 3.65625 -0.8125 4.03125 -0.8125 C 4.414062 -0.8125 4.769531 -0.898438 5.09375 -1.078125 C 5.414062 -1.265625 5.671875 -1.535156 5.859375 -1.890625 C 6.054688 -2.242188 6.15625 -2.660156 6.15625 -3.140625 Z M 6.15625 -3.140625 "/></g></g></g><g fill="#ffffff" fill-opacity="1"><g transform="translate(156.478219, 21.932403)"><g><path d="M 3.59375 0.109375 C 3.007812 0.109375 2.476562 -0.0195312 2 -0.28125 C 1.53125 -0.550781 1.160156 -0.929688 0.890625 -1.421875 C 0.617188 -1.921875 0.484375 -2.488281 0.484375 -3.125 C 0.484375 -3.769531 0.625 -4.335938 0.90625 -4.828125 C 1.1875 -5.316406 1.5625 -5.691406 2.03125 -5.953125 C 2.507812 -6.210938 3.046875 -6.34375 3.640625 -6.34375 C 4.234375 -6.34375 4.769531 -6.210938 5.25 -5.953125 C 5.726562 -5.691406 6.101562 -5.316406 6.375 -4.828125 C 6.65625 -4.335938 6.796875 -3.769531 6.796875 -3.125 C 6.796875 -2.488281 6.65625 -1.921875 6.375 -1.421875 C 6.09375 -0.929688 5.707031 -0.550781 5.21875 -0.28125 C 4.726562 -0.0195312 4.1875 0.109375 3.59375 0.109375 Z M 3.59375 -0.8125 C 3.96875 -0.8125 4.316406 -0.894531 4.640625 -1.0625 C 4.972656 -1.238281 5.238281 -1.5 5.4375 -1.84375 C 5.632812 -2.195312 5.734375 -2.625 5.734375 -3.125 C 5.734375 -3.632812 5.632812 -4.0625 5.4375 -4.40625 C 5.25 -4.757812 4.992188 -5.019531 4.671875 -5.1875 C 4.347656 -5.351562 4.003906 -5.4375 3.640625 -5.4375 C 3.253906 -5.4375 2.90625 -5.351562 2.59375 -5.1875 C 2.28125 -5.019531 2.023438 -4.757812 1.828125 -4.40625 C 1.640625 -4.0625 1.546875 -3.632812 1.546875 -3.125 C 1.546875 -2.625 1.640625 -2.195312 1.828125 -1.84375 C 2.015625 -1.5 2.265625 -1.238281 2.578125 -1.0625 C 2.890625 -0.894531 3.226562 -0.8125 3.59375 -0.8125 Z M 3.59375 -0.8125 "/></g></g></g><g fill="#ffffff" fill-opacity="1"><g transform="translate(163.761066, 21.932403)"><g><path d="M 1.90625 -5.234375 C 2.09375 -5.585938 2.351562 -5.863281 2.6875 -6.0625 C 3.03125 -6.257812 3.445312 -6.359375 3.9375 -6.359375 L 3.9375 -5.28125 L 3.65625 -5.28125 C 2.488281 -5.28125 1.90625 -4.648438 1.90625 -3.390625 L 1.90625 0 L 0.875 0 L 0.875 -6.234375 L 1.90625 -6.234375 Z M 1.90625 -5.234375 "/></g></g></g><g fill="#ffffff" fill-opacity="1"><g transform="translate(168.005596, 21.932403)"><g><path d="M 2.140625 -5.390625 L 2.140625 -1.703125 C 2.140625 -1.398438 2.203125 -1.1875 2.328125 -1.0625 C 2.460938 -0.9375 2.6875 -0.875 3 -0.875 L 3.765625 -0.875 L 3.765625 0 L 2.84375 0 C 2.257812 0 1.820312 -0.128906 1.53125 -0.390625 C 1.25 -0.660156 1.109375 -1.097656 1.109375 -1.703125 L 1.109375 -5.390625 L 0.296875 -5.390625 L 0.296875 -6.234375 L 1.109375 -6.234375 L 1.109375 -7.8125 L 2.140625 -7.8125 L 2.140625 -6.234375 L 3.765625 -6.234375 L 3.765625 -5.390625 Z M 2.140625 -5.390625 "/></g></g></g><g fill="#ffffff" fill-opacity="1"><g transform="translate(172.147718, 21.932403)"><g><path d="M 6.40625 -6.234375 L 6.40625 0 L 5.375 0 L 5.375 -0.921875 C 5.175781 -0.597656 4.898438 -0.347656 4.546875 -0.171875 C 4.191406 0.00390625 3.804688 0.09375 3.390625 0.09375 C 2.898438 0.09375 2.457031 -0.00390625 2.0625 -0.203125 C 1.675781 -0.410156 1.367188 -0.710938 1.140625 -1.109375 C 0.921875 -1.515625 0.8125 -2.003906 0.8125 -2.578125 L 0.8125 -6.234375 L 1.84375 -6.234375 L 1.84375 -2.71875 C 1.84375 -2.101562 2 -1.628906 2.3125 -1.296875 C 2.625 -0.972656 3.050781 -0.8125 3.59375 -0.8125 C 4.144531 -0.8125 4.578125 -0.976562 4.890625 -1.3125 C 5.210938 -1.65625 5.375 -2.15625 5.375 -2.8125 L 5.375 -6.234375 Z M 6.40625 -6.234375 "/></g></g></g><g fill="#ffffff" fill-opacity="1"><g transform="translate(179.430564, 21.932403)"><g><path d="M 3.921875 -6.359375 C 4.679688 -6.359375 5.296875 -6.128906 5.765625 -5.671875 C 6.234375 -5.210938 6.46875 -4.546875 6.46875 -3.671875 L 6.46875 0 L 5.4375 0 L 5.4375 -3.53125 C 5.4375 -4.15625 5.28125 -4.628906 4.96875 -4.953125 C 4.664062 -5.285156 4.242188 -5.453125 3.703125 -5.453125 C 3.148438 -5.453125 2.710938 -5.28125 2.390625 -4.9375 C 2.066406 -4.601562 1.90625 -4.109375 1.90625 -3.453125 L 1.90625 0 L 0.875 0 L 0.875 -6.234375 L 1.90625 -6.234375 L 1.90625 -5.359375 C 2.113281 -5.671875 2.394531 -5.914062 2.75 -6.09375 C 3.101562 -6.269531 3.492188 -6.359375 3.921875 -6.359375 Z M 3.921875 -6.359375 "/></g></g></g><g fill="#ffffff" fill-opacity="1"><g transform="translate(186.713411, 21.932403)"><g><path d="M 1.40625 -7.25 C 1.207031 -7.25 1.039062 -7.316406 0.90625 -7.453125 C 0.769531 -7.597656 0.703125 -7.769531 0.703125 -7.96875 C 0.703125 -8.164062 0.769531 -8.332031 0.90625 -8.46875 C 1.039062 -8.601562 1.207031 -8.671875 1.40625 -8.671875 C 1.601562 -8.671875 1.765625 -8.601562 1.890625 -8.46875 C 2.023438 -8.332031 2.09375 -8.164062 2.09375 -7.96875 C 2.09375 -7.769531 2.023438 -7.597656 1.890625 -7.453125 C 1.765625 -7.316406 1.601562 -7.25 1.40625 -7.25 Z M 1.90625 -6.234375 L 1.90625 0 L 0.875 0 L 0.875 -6.234375 Z M 1.90625 -6.234375 "/></g></g></g><g fill="#ffffff" fill-opacity="1"><g transform="translate(189.512756, 21.932403)"><g><path d="M 0.484375 -3.140625 C 0.484375 -3.773438 0.613281 -4.332031 0.875 -4.8125 C 1.132812 -5.300781 1.488281 -5.675781 1.9375 -5.9375 C 2.394531 -6.207031 2.90625 -6.34375 3.46875 -6.34375 C 3.945312 -6.34375 4.394531 -6.226562 4.8125 -6 C 5.226562 -5.78125 5.550781 -5.488281 5.78125 -5.125 L 5.78125 -8.421875 L 6.828125 -8.421875 L 6.828125 0 L 5.78125 0 L 5.78125 -1.171875 C 5.570312 -0.796875 5.265625 -0.488281 4.859375 -0.25 C 4.460938 -0.0078125 3.992188 0.109375 3.453125 0.109375 C 2.898438 0.109375 2.394531 -0.0234375 1.9375 -0.296875 C 1.488281 -0.578125 1.132812 -0.960938 0.875 -1.453125 C 0.613281 -1.953125 0.484375 -2.515625 0.484375 -3.140625 Z M 5.78125 -3.125 C 5.78125 -3.601562 5.679688 -4.015625 5.484375 -4.359375 C 5.296875 -4.710938 5.039062 -4.976562 4.71875 -5.15625 C 4.394531 -5.34375 4.039062 -5.4375 3.65625 -5.4375 C 3.269531 -5.4375 2.914062 -5.34375 2.59375 -5.15625 C 2.28125 -4.976562 2.023438 -4.710938 1.828125 -4.359375 C 1.640625 -4.015625 1.546875 -3.609375 1.546875 -3.140625 C 1.546875 -2.660156 1.640625 -2.242188 1.828125 -1.890625 C 2.023438 -1.535156 2.28125 -1.265625 2.59375 -1.078125 C 2.914062 -0.898438 3.269531 -0.8125 3.65625 -0.8125 C 4.039062 -0.8125 4.394531 -0.898438 4.71875 -1.078125 C 5.039062 -1.265625 5.296875 -1.535156 5.484375 -1.890625 C 5.679688 -2.242188 5.78125 -2.65625 5.78125 -3.125 Z M 5.78125 -3.125 "/></g></g></g><g fill="#ffffff" fill-opacity="1"><g transform="translate(197.205263, 21.932403)"><g><path d="M 0.484375 -3.140625 C 0.484375 -3.773438 0.613281 -4.332031 0.875 -4.8125 C 1.132812 -5.300781 1.488281 -5.675781 1.9375 -5.9375 C 2.394531 -6.207031 2.898438 -6.34375 3.453125 -6.34375 C 3.992188 -6.34375 4.46875 -6.222656 4.875 -5.984375 C 5.28125 -5.753906 5.582031 -5.460938 5.78125 -5.109375 L 5.78125 -6.234375 L 6.828125 -6.234375 L 6.828125 0 L 5.78125 0 L 5.78125 -1.15625 C 5.570312 -0.789062 5.265625 -0.488281 4.859375 -0.25 C 4.453125 -0.0078125 3.976562 0.109375 3.4375 0.109375 C 2.882812 0.109375 2.382812 -0.0234375 1.9375 -0.296875 C 1.488281 -0.578125 1.132812 -0.960938 0.875 -1.453125 C 0.613281 -1.953125 0.484375 -2.515625 0.484375 -3.140625 Z M 5.78125 -3.125 C 5.78125 -3.601562 5.679688 -4.015625 5.484375 -4.359375 C 5.296875 -4.710938 5.039062 -4.976562 4.71875 -5.15625 C 4.394531 -5.34375 4.039062 -5.4375 3.65625 -5.4375 C 3.269531 -5.4375 2.914062 -5.34375 2.59375 -5.15625 C 2.28125 -4.976562 2.023438 -4.710938 1.828125 -4.359375 C 1.640625 -4.015625 1.546875 -3.609375 1.546875 -3.140625 C 1.546875 -2.660156 1.640625 -2.242188 1.828125 -1.890625 C 2.023438 -1.535156 2.28125 -1.265625 2.59375 -1.078125 C 2.914062 -0.898438 3.269531 -0.8125 3.65625 -0.8125 C 4.039062 -0.8125 4.394531 -0.898438 4.71875 -1.078125 C 5.039062 -1.265625 5.296875 -1.535156 5.484375 -1.890625 C 5.679688 -2.242188 5.78125 -2.65625 5.78125 -3.125 Z M 5.78125 -3.125 "/></g></g></g><g fill="#ffffff" fill-opacity="1"><g transform="translate(204.897771, 21.932403)"><g><path d="M 0.484375 -3.140625 C 0.484375 -3.773438 0.613281 -4.332031 0.875 -4.8125 C 1.132812 -5.300781 1.488281 -5.675781 1.9375 -5.9375 C 2.394531 -6.207031 2.90625 -6.34375 3.46875 -6.34375 C 3.945312 -6.34375 4.394531 -6.226562 4.8125 -6 C 5.226562 -5.78125 5.550781 -5.488281 5.78125 -5.125 L 5.78125 -8.421875 L 6.828125 -8.421875 L 6.828125 0 L 5.78125 0 L 5.78125 -1.171875 C 5.570312 -0.796875 5.265625 -0.488281 4.859375 -0.25 C 4.460938 -0.0078125 3.992188 0.109375 3.453125 0.109375 C 2.898438 0.109375 2.394531 -0.0234375 1.9375 -0.296875 C 1.488281 -0.578125 1.132812 -0.960938 0.875 -1.453125 C 0.613281 -1.953125 0.484375 -2.515625 0.484375 -3.140625 Z M 5.78125 -3.125 C 5.78125 -3.601562 5.679688 -4.015625 5.484375 -4.359375 C 5.296875 -4.710938 5.039062 -4.976562 4.71875 -5.15625 C 4.394531 -5.34375 4.039062 -5.4375 3.65625 -5.4375 C 3.269531 -5.4375 2.914062 -5.34375 2.59375 -5.15625 C 2.28125 -4.976562 2.023438 -4.710938 1.828125 -4.359375 C 1.640625 -4.015625 1.546875 -3.609375 1.546875 -3.140625 C 1.546875 -2.660156 1.640625 -2.242188 1.828125 -1.890625 C 2.023438 -1.535156 2.28125 -1.265625 2.59375 -1.078125 C 2.914062 -0.898438 3.269531 -0.8125 3.65625 -0.8125 C 4.039062 -0.8125 4.394531 -0.898438 4.71875 -1.078125 C 5.039062 -1.265625 5.296875 -1.535156 5.484375 -1.890625 C 5.679688 -2.242188 5.78125 -2.65625 5.78125 -3.125 Z M 5.78125 -3.125 "/></g></g></g><g fill="#ffffff" fill-opacity="1"><g transform="translate(212.590278, 21.932403)"><g/></g></g><g fill="#ffffff" fill-opacity="1"><g transform="translate(215.628594, 21.932403)"><g><path d="M 0.484375 -3.140625 C 0.484375 -3.773438 0.613281 -4.332031 0.875 -4.8125 C 1.132812 -5.300781 1.488281 -5.675781 1.9375 -5.9375 C 2.394531 -6.207031 2.90625 -6.34375 3.46875 -6.34375 C 3.945312 -6.34375 4.394531 -6.226562 4.8125 -6 C 5.226562 -5.78125 5.550781 -5.488281 5.78125 -5.125 L 5.78125 -8.421875 L 6.828125 -8.421875 L 6.828125 0 L 5.78125 0 L 5.78125 -1.171875 C 5.570312 -0.796875 5.265625 -0.488281 4.859375 -0.25 C 4.460938 -0.0078125 3.992188 0.109375 3.453125 0.109375 C 2.898438 0.109375 2.394531 -0.0234375 1.9375 -0.296875 C 1.488281 -0.578125 1.132812 -0.960938 0.875 -1.453125 C 0.613281 -1.953125 0.484375 -2.515625 0.484375 -3.140625 Z M 5.78125 -3.125 C 5.78125 -3.601562 5.679688 -4.015625 5.484375 -4.359375 C 5.296875 -4.710938 5.039062 -4.976562 4.71875 -5.15625 C 4.394531 -5.34375 4.039062 -5.4375 3.65625 -5.4375 C 3.269531 -5.4375 2.914062 -5.34375 2.59375 -5.15625 C 2.28125 -4.976562 2.023438 -4.710938 1.828125 -4.359375 C 1.640625 -4.015625 1.546875 -3.609375 1.546875 -3.140625 C 1.546875 -2.660156 1.640625 -2.242188 1.828125 -1.890625 C 2.023438 -1.535156 2.28125 -1.265625 2.59375 -1.078125 C 2.914062 -0.898438 3.269531 -0.8125 3.65625 -0.8125 C 4.039062 -0.8125 4.394531 -0.898438 4.71875 -1.078125 C 5.039062 -1.265625 5.296875 -1.535156 5.484375 -1.890625 C 5.679688 -2.242188 5.78125 -2.65625 5.78125 -3.125 Z M 5.78125 -3.125 "/></g></g></g><g fill="#ffffff" fill-opacity="1"><g transform="translate(223.321101, 21.932403)"><g><path d="M 6.578125 -3.359375 C 6.578125 -3.160156 6.5625 -2.953125 6.53125 -2.734375 L 1.546875 -2.734375 C 1.585938 -2.117188 1.796875 -1.640625 2.171875 -1.296875 C 2.554688 -0.953125 3.023438 -0.78125 3.578125 -0.78125 C 4.023438 -0.78125 4.398438 -0.882812 4.703125 -1.09375 C 5.003906 -1.300781 5.210938 -1.578125 5.328125 -1.921875 L 6.453125 -1.921875 C 6.285156 -1.328125 5.945312 -0.835938 5.4375 -0.453125 C 4.9375 -0.078125 4.316406 0.109375 3.578125 0.109375 C 2.984375 0.109375 2.453125 -0.0195312 1.984375 -0.28125 C 1.515625 -0.550781 1.144531 -0.929688 0.875 -1.421875 C 0.613281 -1.921875 0.484375 -2.488281 0.484375 -3.125 C 0.484375 -3.769531 0.613281 -4.335938 0.875 -4.828125 C 1.132812 -5.316406 1.5 -5.691406 1.96875 -5.953125 C 2.4375 -6.210938 2.972656 -6.34375 3.578125 -6.34375 C 4.171875 -6.34375 4.691406 -6.210938 5.140625 -5.953125 C 5.597656 -5.691406 5.953125 -5.335938 6.203125 -4.890625 C 6.453125 -4.441406 6.578125 -3.929688 6.578125 -3.359375 Z M 5.5 -3.578125 C 5.5 -3.972656 5.410156 -4.3125 5.234375 -4.59375 C 5.066406 -4.875 4.832031 -5.085938 4.53125 -5.234375 C 4.226562 -5.390625 3.894531 -5.46875 3.53125 -5.46875 C 3.007812 -5.46875 2.5625 -5.300781 2.1875 -4.96875 C 1.820312 -4.632812 1.613281 -4.171875 1.5625 -3.578125 Z M 5.5 -3.578125 "/></g></g></g><g fill="#ffffff" fill-opacity="1"><g transform="translate(230.376361, 21.932403)"><g/></g></g><g fill="#ffffff" fill-opacity="1"><g transform="translate(233.414677, 21.932403)"><g><path d="M 3.59375 0.109375 C 3.007812 0.109375 2.476562 -0.0195312 2 -0.28125 C 1.53125 -0.550781 1.160156 -0.929688 0.890625 -1.421875 C 0.617188 -1.921875 0.484375 -2.488281 0.484375 -3.125 C 0.484375 -3.769531 0.625 -4.335938 0.90625 -4.828125 C 1.1875 -5.316406 1.5625 -5.691406 2.03125 -5.953125 C 2.507812 -6.210938 3.046875 -6.34375 3.640625 -6.34375 C 4.234375 -6.34375 4.769531 -6.210938 5.25 -5.953125 C 5.726562 -5.691406 6.101562 -5.316406 6.375 -4.828125 C 6.65625 -4.335938 6.796875 -3.769531 6.796875 -3.125 C 6.796875 -2.488281 6.65625 -1.921875 6.375 -1.421875 C 6.09375 -0.929688 5.707031 -0.550781 5.21875 -0.28125 C 4.726562 -0.0195312 4.1875 0.109375 3.59375 0.109375 Z M 3.59375 -0.8125 C 3.96875 -0.8125 4.316406 -0.894531 4.640625 -1.0625 C 4.972656 -1.238281 5.238281 -1.5 5.4375 -1.84375 C 5.632812 -2.195312 5.734375 -2.625 5.734375 -3.125 C 5.734375 -3.632812 5.632812 -4.0625 5.4375 -4.40625 C 5.25 -4.757812 4.992188 -5.019531 4.671875 -5.1875 C 4.347656 -5.351562 4.003906 -5.4375 3.640625 -5.4375 C 3.253906 -5.4375 2.90625 -5.351562 2.59375 -5.1875 C 2.28125 -5.019531 2.023438 -4.757812 1.828125 -4.40625 C 1.640625 -4.0625 1.546875 -3.632812 1.546875 -3.125 C 1.546875 -2.625 1.640625 -2.195312 1.828125 -1.84375 C 2.015625 -1.5 2.265625 -1.238281 2.578125 -1.0625 C 2.890625 -0.894531 3.226562 -0.8125 3.59375 -0.8125 Z M 3.59375 -0.8125 "/></g></g></g><g fill="#ffffff" fill-opacity="1"><g transform="translate(240.697523, 21.932403)"><g><path d="M 1.90625 -5.078125 C 2.125 -5.453125 2.4375 -5.753906 2.84375 -5.984375 C 3.257812 -6.222656 3.726562 -6.34375 4.25 -6.34375 C 4.8125 -6.34375 5.316406 -6.207031 5.765625 -5.9375 C 6.210938 -5.675781 6.5625 -5.300781 6.8125 -4.8125 C 7.070312 -4.332031 7.203125 -3.773438 7.203125 -3.140625 C 7.203125 -2.515625 7.070312 -1.953125 6.8125 -1.453125 C 6.5625 -0.960938 6.207031 -0.578125 5.75 -0.296875 C 5.300781 -0.0234375 4.800781 0.109375 4.25 0.109375 C 3.707031 0.109375 3.234375 -0.0078125 2.828125 -0.25 C 2.421875 -0.488281 2.113281 -0.789062 1.90625 -1.15625 L 1.90625 0 L 0.875 0 L 0.875 -8.421875 L 1.90625 -8.421875 Z M 6.15625 -3.140625 C 6.15625 -3.609375 6.054688 -4.015625 5.859375 -4.359375 C 5.671875 -4.710938 5.414062 -4.976562 5.09375 -5.15625 C 4.769531 -5.34375 4.414062 -5.4375 4.03125 -5.4375 C 3.65625 -5.4375 3.304688 -5.34375 2.984375 -5.15625 C 2.660156 -4.976562 2.398438 -4.710938 2.203125 -4.359375 C 2.003906 -4.003906 1.90625 -3.59375 1.90625 -3.125 C 1.90625 -2.65625 2.003906 -2.242188 2.203125 -1.890625 C 2.398438 -1.535156 2.660156 -1.265625 2.984375 -1.078125 C 3.304688 -0.898438 3.65625 -0.8125 4.03125 -0.8125 C 4.414062 -0.8125 4.769531 -0.898438 5.09375 -1.078125 C 5.414062 -1.265625 5.671875 -1.535156 5.859375 -1.890625 C 6.054688 -2.242188 6.15625 -2.660156 6.15625 -3.140625 Z M 6.15625 -3.140625 "/></g></g></g><g fill="#ffffff" fill-opacity="1"><g transform="translate(248.390031, 21.932403)"><g><path d="M 2.140625 -5.390625 L 2.140625 -1.703125 C 2.140625 -1.398438 2.203125 -1.1875 2.328125 -1.0625 C 2.460938 -0.9375 2.6875 -0.875 3 -0.875 L 3.765625 -0.875 L 3.765625 0 L 2.84375 0 C 2.257812 0 1.820312 -0.128906 1.53125 -0.390625 C 1.25 -0.660156 1.109375 -1.097656 1.109375 -1.703125 L 1.109375 -5.390625 L 0.296875 -5.390625 L 0.296875 -6.234375 L 1.109375 -6.234375 L 1.109375 -7.8125 L 2.140625 -7.8125 L 2.140625 -6.234375 L 3.765625 -6.234375 L 3.765625 -5.390625 Z M 2.140625 -5.390625 "/></g></g></g><g fill="#ffffff" fill-opacity="1"><g transform="translate(252.532152, 21.932403)"><g><path d="M 6.578125 -3.359375 C 6.578125 -3.160156 6.5625 -2.953125 6.53125 -2.734375 L 1.546875 -2.734375 C 1.585938 -2.117188 1.796875 -1.640625 2.171875 -1.296875 C 2.554688 -0.953125 3.023438 -0.78125 3.578125 -0.78125 C 4.023438 -0.78125 4.398438 -0.882812 4.703125 -1.09375 C 5.003906 -1.300781 5.210938 -1.578125 5.328125 -1.921875 L 6.453125 -1.921875 C 6.285156 -1.328125 5.945312 -0.835938 5.4375 -0.453125 C 4.9375 -0.078125 4.316406 0.109375 3.578125 0.109375 C 2.984375 0.109375 2.453125 -0.0195312 1.984375 -0.28125 C 1.515625 -0.550781 1.144531 -0.929688 0.875 -1.421875 C 0.613281 -1.921875 0.484375 -2.488281 0.484375 -3.125 C 0.484375 -3.769531 0.613281 -4.335938 0.875 -4.828125 C 1.132812 -5.316406 1.5 -5.691406 1.96875 -5.953125 C 2.4375 -6.210938 2.972656 -6.34375 3.578125 -6.34375 C 4.171875 -6.34375 4.691406 -6.210938 5.140625 -5.953125 C 5.597656 -5.691406 5.953125 -5.335938 6.203125 -4.890625 C 6.453125 -4.441406 6.578125 -3.929688 6.578125 -3.359375 Z M 5.5 -3.578125 C 5.5 -3.972656 5.410156 -4.3125 5.234375 -4.59375 C 5.066406 -4.875 4.832031 -5.085938 4.53125 -5.234375 C 4.226562 -5.390625 3.894531 -5.46875 3.53125 -5.46875 C 3.007812 -5.46875 2.5625 -5.300781 2.1875 -4.96875 C 1.820312 -4.632812 1.613281 -4.171875 1.5625 -3.578125 Z M 5.5 -3.578125 "/></g></g></g><g fill="#ffffff" fill-opacity="1"><g transform="translate(259.587412, 21.932403)"><g><path d="M 3.921875 -6.359375 C 4.679688 -6.359375 5.296875 -6.128906 5.765625 -5.671875 C 6.234375 -5.210938 6.46875 -4.546875 6.46875 -3.671875 L 6.46875 0 L 5.4375 0 L 5.4375 -3.53125 C 5.4375 -4.15625 5.28125 -4.628906 4.96875 -4.953125 C 4.664062 -5.285156 4.242188 -5.453125 3.703125 -5.453125 C 3.148438 -5.453125 2.710938 -5.28125 2.390625 -4.9375 C 2.066406 -4.601562 1.90625 -4.109375 1.90625 -3.453125 L 1.90625 0 L 0.875 0 L 0.875 -6.234375 L 1.90625 -6.234375 L 1.90625 -5.359375 C 2.113281 -5.671875 2.394531 -5.914062 2.75 -6.09375 C 3.101562 -6.269531 3.492188 -6.359375 3.921875 -6.359375 Z M 3.921875 -6.359375 "/></g></g></g><g fill="#ffffff" fill-opacity="1"><g transform="translate(266.870258, 21.932403)"><g><path d="M 6.578125 -3.359375 C 6.578125 -3.160156 6.5625 -2.953125 6.53125 -2.734375 L 1.546875 -2.734375 C 1.585938 -2.117188 1.796875 -1.640625 2.171875 -1.296875 C 2.554688 -0.953125 3.023438 -0.78125 3.578125 -0.78125 C 4.023438 -0.78125 4.398438 -0.882812 4.703125 -1.09375 C 5.003906 -1.300781 5.210938 -1.578125 5.328125 -1.921875 L 6.453125 -1.921875 C 6.285156 -1.328125 5.945312 -0.835938 5.4375 -0.453125 C 4.9375 -0.078125 4.316406 0.109375 3.578125 0.109375 C 2.984375 0.109375 2.453125 -0.0195312 1.984375 -0.28125 C 1.515625 -0.550781 1.144531 -0.929688 0.875 -1.421875 C 0.613281 -1.921875 0.484375 -2.488281 0.484375 -3.125 C 0.484375 -3.769531 0.613281 -4.335938 0.875 -4.828125 C 1.132812 -5.316406 1.5 -5.691406 1.96875 -5.953125 C 2.4375 -6.210938 2.972656 -6.34375 3.578125 -6.34375 C 4.171875 -6.34375 4.691406 -6.210938 5.140625 -5.953125 C 5.597656 -5.691406 5.953125 -5.335938 6.203125 -4.890625 C 6.453125 -4.441406 6.578125 -3.929688 6.578125 -3.359375 Z M 5.5 -3.578125 C 5.5 -3.972656 5.410156 -4.3125 5.234375 -4.59375 C 5.066406 -4.875 4.832031 -5.085938 4.53125 -5.234375 C 4.226562 -5.390625 3.894531 -5.46875 3.53125 -5.46875 C 3.007812 -5.46875 2.5625 -5.300781 2.1875 -4.96875 C 1.820312 -4.632812 1.613281 -4.171875 1.5625 -3.578125 Z M 5.5 -3.578125 "/></g></g></g><g fill="#ffffff" fill-opacity="1"><g transform="translate(273.925518, 21.932403)"><g><path d="M 1.90625 -5.234375 C 2.09375 -5.585938 2.351562 -5.863281 2.6875 -6.0625 C 3.03125 -6.257812 3.445312 -6.359375 3.9375 -6.359375 L 3.9375 -5.28125 L 3.65625 -5.28125 C 2.488281 -5.28125 1.90625 -4.648438 1.90625 -3.390625 L 1.90625 0 L 0.875 0 L 0.875 -6.234375 L 1.90625 -6.234375 Z M 1.90625 -5.234375 "/></g></g></g><g fill="#ffffff" fill-opacity="1"><g transform="translate(278.170048, 21.932403)"><g/></g></g><g fill="#ffffff" fill-opacity="1"><g transform="translate(281.208364, 21.932403)"><g><path d="M 3.96875 -6.359375 C 4.445312 -6.359375 4.875 -6.253906 5.25 -6.046875 C 5.632812 -5.847656 5.929688 -5.546875 6.140625 -5.140625 C 6.359375 -4.742188 6.46875 -4.253906 6.46875 -3.671875 L 6.46875 0 L 5.4375 0 L 5.4375 -3.53125 C 5.4375 -4.15625 5.28125 -4.628906 4.96875 -4.953125 C 4.664062 -5.285156 4.242188 -5.453125 3.703125 -5.453125 C 3.148438 -5.453125 2.710938 -5.28125 2.390625 -4.9375 C 2.066406 -4.601562 1.90625 -4.109375 1.90625 -3.453125 L 1.90625 0 L 0.875 0 L 0.875 -8.421875 L 1.90625 -8.421875 L 1.90625 -5.359375 C 2.113281 -5.671875 2.394531 -5.914062 2.75 -6.09375 C 3.113281 -6.269531 3.519531 -6.359375 3.96875 -6.359375 Z M 3.96875 -6.359375 "/></g></g></g><g fill="#ffffff" fill-opacity="1"><g transform="translate(288.491211, 21.932403)"><g><path d="M 0.484375 -3.140625 C 0.484375 -3.773438 0.613281 -4.332031 0.875 -4.8125 C 1.132812 -5.300781 1.488281 -5.675781 1.9375 -5.9375 C 2.394531 -6.207031 2.898438 -6.34375 3.453125 -6.34375 C 3.992188 -6.34375 4.46875 -6.222656 4.875 -5.984375 C 5.28125 -5.753906 5.582031 -5.460938 5.78125 -5.109375 L 5.78125 -6.234375 L 6.828125 -6.234375 L 6.828125 0 L 5.78125 0 L 5.78125 -1.15625 C 5.570312 -0.789062 5.265625 -0.488281 4.859375 -0.25 C 4.453125 -0.0078125 3.976562 0.109375 3.4375 0.109375 C 2.882812 0.109375 2.382812 -0.0234375 1.9375 -0.296875 C 1.488281 -0.578125 1.132812 -0.960938 0.875 -1.453125 C 0.613281 -1.953125 0.484375 -2.515625 0.484375 -3.140625 Z M 5.78125 -3.125 C 5.78125 -3.601562 5.679688 -4.015625 5.484375 -4.359375 C 5.296875 -4.710938 5.039062 -4.976562 4.71875 -5.15625 C 4.394531 -5.34375 4.039062 -5.4375 3.65625 -5.4375 C 3.269531 -5.4375 2.914062 -5.34375 2.59375 -5.15625 C 2.28125 -4.976562 2.023438 -4.710938 1.828125 -4.359375 C 1.640625 -4.015625 1.546875 -3.609375 1.546875 -3.140625 C 1.546875 -2.660156 1.640625 -2.242188 1.828125 -1.890625 C 2.023438 -1.535156 2.28125 -1.265625 2.59375 -1.078125 C 2.914062 -0.898438 3.269531 -0.8125 3.65625 -0.8125 C 4.039062 -0.8125 4.394531 -0.898438 4.71875 -1.078125 C 5.039062 -1.265625 5.296875 -1.535156 5.484375 -1.890625 C 5.679688 -2.242188 5.78125 -2.65625 5.78125 -3.125 Z M 5.78125 -3.125 "/></g></g></g><g fill="#ffffff" fill-opacity="1"><g transform="translate(296.18373, 21.932403)"><g><path d="M 3.09375 0.109375 C 2.613281 0.109375 2.179688 0.0234375 1.796875 -0.140625 C 1.421875 -0.304688 1.117188 -0.535156 0.890625 -0.828125 C 0.671875 -1.117188 0.550781 -1.453125 0.53125 -1.828125 L 1.609375 -1.828125 C 1.640625 -1.515625 1.785156 -1.257812 2.046875 -1.0625 C 2.304688 -0.875 2.648438 -0.78125 3.078125 -0.78125 C 3.472656 -0.78125 3.78125 -0.863281 4 -1.03125 C 4.226562 -1.207031 4.34375 -1.429688 4.34375 -1.703125 C 4.34375 -1.972656 4.222656 -2.171875 3.984375 -2.296875 C 3.742188 -2.429688 3.367188 -2.566406 2.859375 -2.703125 C 2.398438 -2.816406 2.019531 -2.9375 1.71875 -3.0625 C 1.425781 -3.1875 1.175781 -3.375 0.96875 -3.625 C 0.757812 -3.875 0.65625 -4.203125 0.65625 -4.609375 C 0.65625 -4.921875 0.75 -5.207031 0.9375 -5.46875 C 1.132812 -5.738281 1.40625 -5.953125 1.75 -6.109375 C 2.101562 -6.265625 2.503906 -6.34375 2.953125 -6.34375 C 3.640625 -6.34375 4.195312 -6.164062 4.625 -5.8125 C 5.050781 -5.46875 5.28125 -4.992188 5.3125 -4.390625 L 4.265625 -4.390625 C 4.242188 -4.710938 4.113281 -4.972656 3.875 -5.171875 C 3.632812 -5.367188 3.316406 -5.46875 2.921875 -5.46875 C 2.546875 -5.46875 2.25 -5.382812 2.03125 -5.21875 C 1.8125 -5.0625 1.703125 -4.859375 1.703125 -4.609375 C 1.703125 -4.398438 1.765625 -4.226562 1.890625 -4.09375 C 2.023438 -3.957031 2.191406 -3.847656 2.390625 -3.765625 C 2.597656 -3.691406 2.878906 -3.609375 3.234375 -3.515625 C 3.679688 -3.390625 4.046875 -3.265625 4.328125 -3.140625 C 4.609375 -3.023438 4.847656 -2.847656 5.046875 -2.609375 C 5.253906 -2.378906 5.359375 -2.078125 5.359375 -1.703125 C 5.359375 -1.359375 5.265625 -1.046875 5.078125 -0.765625 C 4.890625 -0.492188 4.625 -0.28125 4.28125 -0.125 C 3.9375 0.03125 3.539062 0.109375 3.09375 0.109375 Z M 3.09375 0.109375 "/></g></g></g><g fill="#ffffff" fill-opacity="1"><g transform="translate(302.1238, 21.932403)"><g><path d="M 2.140625 -5.390625 L 2.140625 -1.703125 C 2.140625 -1.398438 2.203125 -1.1875 2.328125 -1.0625 C 2.460938 -0.9375 2.6875 -0.875 3 -0.875 L 3.765625 -0.875 L 3.765625 0 L 2.84375 0 C 2.257812 0 1.820312 -0.128906 1.53125 -0.390625 C 1.25 -0.660156 1.109375 -1.097656 1.109375 -1.703125 L 1.109375 -5.390625 L 0.296875 -5.390625 L 0.296875 -6.234375 L 1.109375 -6.234375 L 1.109375 -7.8125 L 2.140625 -7.8125 L 2.140625 -6.234375 L 3.765625 -6.234375 L 3.765625 -5.390625 Z M 2.140625 -5.390625 "/></g></g></g><g fill="#ffffff" fill-opacity="1"><g transform="translate(306.265921, 21.932403)"><g><path d="M 0.484375 -3.140625 C 0.484375 -3.773438 0.613281 -4.332031 0.875 -4.8125 C 1.132812 -5.300781 1.488281 -5.675781 1.9375 -5.9375 C 2.394531 -6.207031 2.898438 -6.34375 3.453125 -6.34375 C 3.992188 -6.34375 4.46875 -6.222656 4.875 -5.984375 C 5.28125 -5.753906 5.582031 -5.460938 5.78125 -5.109375 L 5.78125 -6.234375 L 6.828125 -6.234375 L 6.828125 0 L 5.78125 0 L 5.78125 -1.15625 C 5.570312 -0.789062 5.265625 -0.488281 4.859375 -0.25 C 4.453125 -0.0078125 3.976562 0.109375 3.4375 0.109375 C 2.882812 0.109375 2.382812 -0.0234375 1.9375 -0.296875 C 1.488281 -0.578125 1.132812 -0.960938 0.875 -1.453125 C 0.613281 -1.953125 0.484375 -2.515625 0.484375 -3.140625 Z M 5.78125 -3.125 C 5.78125 -3.601562 5.679688 -4.015625 5.484375 -4.359375 C 5.296875 -4.710938 5.039062 -4.976562 4.71875 -5.15625 C 4.394531 -5.34375 4.039062 -5.4375 3.65625 -5.4375 C 3.269531 -5.4375 2.914062 -5.34375 2.59375 -5.15625 C 2.28125 -4.976562 2.023438 -4.710938 1.828125 -4.359375 C 1.640625 -4.015625 1.546875 -3.609375 1.546875 -3.140625 C 1.546875 -2.660156 1.640625 -2.242188 1.828125 -1.890625 C 2.023438 -1.535156 2.28125 -1.265625 2.59375 -1.078125 C 2.914062 -0.898438 3.269531 -0.8125 3.65625 -0.8125 C 4.039062 -0.8125 4.394531 -0.898438 4.71875 -1.078125 C 5.039062 -1.265625 5.296875 -1.535156 5.484375 -1.890625 C 5.679688 -2.242188 5.78125 -2.65625 5.78125 -3.125 Z M 5.78125 -3.125 "/></g></g></g><g fill="#ffffff" fill-opacity="1"><g transform="translate(313.958429, 21.932403)"><g/></g></g><g fill="#ffffff" fill-opacity="1"><g transform="translate(316.996745, 21.932403)"><g><path d="M 0.6875 -6.15625 C 0.738281 -6.851562 1.003906 -7.398438 1.484375 -7.796875 C 1.972656 -8.191406 2.609375 -8.390625 3.390625 -8.390625 C 3.898438 -8.390625 4.34375 -8.296875 4.71875 -8.109375 C 5.09375 -7.929688 5.375 -7.679688 5.5625 -7.359375 C 5.757812 -7.035156 5.859375 -6.675781 5.859375 -6.28125 C 5.859375 -5.800781 5.722656 -5.390625 5.453125 -5.046875 C 5.191406 -4.710938 4.84375 -4.492188 4.40625 -4.390625 L 4.40625 -4.34375 C 4.90625 -4.21875 5.296875 -3.976562 5.578125 -3.625 C 5.867188 -3.269531 6.015625 -2.800781 6.015625 -2.21875 C 6.015625 -1.789062 5.914062 -1.398438 5.71875 -1.046875 C 5.519531 -0.703125 5.222656 -0.429688 4.828125 -0.234375 C 4.429688 -0.0351562 3.957031 0.0625 3.40625 0.0625 C 2.601562 0.0625 1.941406 -0.144531 1.421875 -0.5625 C 0.910156 -0.988281 0.625 -1.59375 0.5625 -2.375 L 1.5625 -2.375 C 1.613281 -1.914062 1.796875 -1.539062 2.109375 -1.25 C 2.429688 -0.957031 2.859375 -0.8125 3.390625 -0.8125 C 3.921875 -0.8125 4.320312 -0.953125 4.59375 -1.234375 C 4.875 -1.515625 5.015625 -1.875 5.015625 -2.3125 C 5.015625 -2.882812 4.828125 -3.296875 4.453125 -3.546875 C 4.078125 -3.796875 3.503906 -3.921875 2.734375 -3.921875 L 2.46875 -3.921875 L 2.46875 -4.78125 L 2.75 -4.78125 C 3.445312 -4.789062 3.972656 -4.90625 4.328125 -5.125 C 4.679688 -5.351562 4.859375 -5.703125 4.859375 -6.171875 C 4.859375 -6.578125 4.726562 -6.898438 4.46875 -7.140625 C 4.207031 -7.378906 3.832031 -7.5 3.34375 -7.5 C 2.875 -7.5 2.492188 -7.378906 2.203125 -7.140625 C 1.921875 -6.898438 1.753906 -6.570312 1.703125 -6.15625 Z M 0.6875 -6.15625 "/></g></g></g><g fill="#ffffff" fill-opacity="1"><g transform="translate(323.69924, 21.932403)"><g><path d="M 0.703125 -4.203125 C 0.703125 -5.503906 0.914062 -6.519531 1.34375 -7.25 C 1.769531 -7.988281 2.515625 -8.359375 3.578125 -8.359375 C 4.628906 -8.359375 5.367188 -7.988281 5.796875 -7.25 C 6.222656 -6.519531 6.4375 -5.503906 6.4375 -4.203125 C 6.4375 -2.867188 6.222656 -1.832031 5.796875 -1.09375 C 5.367188 -0.363281 4.628906 0 3.578125 0 C 2.515625 0 1.769531 -0.363281 1.34375 -1.09375 C 0.914062 -1.832031 0.703125 -2.867188 0.703125 -4.203125 Z M 5.40625 -4.203125 C 5.40625 -4.859375 5.363281 -5.414062 5.28125 -5.875 C 5.195312 -6.34375 5.019531 -6.71875 4.75 -7 C 4.476562 -7.28125 4.085938 -7.421875 3.578125 -7.421875 C 3.054688 -7.421875 2.660156 -7.28125 2.390625 -7 C 2.128906 -6.71875 1.953125 -6.34375 1.859375 -5.875 C 1.773438 -5.414062 1.734375 -4.859375 1.734375 -4.203125 C 1.734375 -3.515625 1.773438 -2.9375 1.859375 -2.46875 C 1.953125 -2.007812 2.128906 -1.640625 2.390625 -1.359375 C 2.660156 -1.085938 3.054688 -0.953125 3.578125 -0.953125 C 4.085938 -0.953125 4.476562 -1.085938 4.75 -1.359375 C 5.019531 -1.640625 5.195312 -2.007812 5.28125 -2.46875 C 5.363281 -2.9375 5.40625 -3.515625 5.40625 -4.203125 Z M 5.40625 -4.203125 "/></g></g></g><g fill="#ffffff" fill-opacity="1"><g transform="translate(330.845548, 21.932403)"><g><path d="M 0.484375 -6.375 C 0.484375 -6.894531 0.632812 -7.304688 0.9375 -7.609375 C 1.25 -7.921875 1.648438 -8.078125 2.140625 -8.078125 C 2.628906 -8.078125 3.023438 -7.921875 3.328125 -7.609375 C 3.640625 -7.304688 3.796875 -6.894531 3.796875 -6.375 C 3.796875 -5.851562 3.640625 -5.4375 3.328125 -5.125 C 3.023438 -4.820312 2.628906 -4.671875 2.140625 -4.671875 C 1.648438 -4.671875 1.25 -4.820312 0.9375 -5.125 C 0.632812 -5.4375 0.484375 -5.851562 0.484375 -6.375 Z M 7.125 -7.953125 L 2.515625 0 L 1.484375 0 L 6.109375 -7.953125 Z M 2.140625 -7.4375 C 1.878906 -7.4375 1.675781 -7.347656 1.53125 -7.171875 C 1.382812 -6.992188 1.3125 -6.726562 1.3125 -6.375 C 1.3125 -6.03125 1.382812 -5.765625 1.53125 -5.578125 C 1.675781 -5.398438 1.878906 -5.3125 2.140625 -5.3125 C 2.398438 -5.3125 2.601562 -5.398438 2.75 -5.578125 C 2.90625 -5.765625 2.984375 -6.03125 2.984375 -6.375 C 2.984375 -6.726562 2.90625 -6.992188 2.75 -7.171875 C 2.601562 -7.347656 2.398438 -7.4375 2.140625 -7.4375 Z M 4.84375 -1.578125 C 4.84375 -2.097656 5 -2.507812 5.3125 -2.8125 C 5.625 -3.125 6.019531 -3.28125 6.5 -3.28125 C 6.988281 -3.28125 7.382812 -3.125 7.6875 -2.8125 C 8 -2.507812 8.15625 -2.097656 8.15625 -1.578125 C 8.15625 -1.054688 8 -0.640625 7.6875 -0.328125 C 7.382812 -0.015625 6.988281 0.140625 6.5 0.140625 C 6.019531 0.140625 5.625 -0.0078125 5.3125 -0.3125 C 5 -0.625 4.84375 -1.046875 4.84375 -1.578125 Z M 6.5 -2.625 C 6.238281 -2.625 6.03125 -2.535156 5.875 -2.359375 C 5.726562 -2.179688 5.65625 -1.921875 5.65625 -1.578125 C 5.65625 -1.234375 5.726562 -0.972656 5.875 -0.796875 C 6.03125 -0.617188 6.238281 -0.53125 6.5 -0.53125 C 6.75 -0.53125 6.945312 -0.617188 7.09375 -0.796875 C 7.25 -0.972656 7.328125 -1.234375 7.328125 -1.578125 C 7.328125 -1.921875 7.25 -2.179688 7.09375 -2.359375 C 6.945312 -2.535156 6.75 -2.625 6.5 -2.625 Z M 6.5 -2.625 "/></g></g></g><g fill="#ffffff" fill-opacity="1"><g transform="translate(339.482555, 21.932403)"><g/></g></g><g fill="#ffffff" fill-opacity="1"><g transform="translate(342.52087, 21.932403)"><g><path d="M 0.484375 -3.140625 C 0.484375 -3.773438 0.613281 -4.332031 0.875 -4.8125 C 1.132812 -5.300781 1.488281 -5.675781 1.9375 -5.9375 C 2.394531 -6.207031 2.90625 -6.34375 3.46875 -6.34375 C 3.945312 -6.34375 4.394531 -6.226562 4.8125 -6 C 5.226562 -5.78125 5.550781 -5.488281 5.78125 -5.125 L 5.78125 -8.421875 L 6.828125 -8.421875 L 6.828125 0 L 5.78125 0 L 5.78125 -1.171875 C 5.570312 -0.796875 5.265625 -0.488281 4.859375 -0.25 C 4.460938 -0.0078125 3.992188 0.109375 3.453125 0.109375 C 2.898438 0.109375 2.394531 -0.0234375 1.9375 -0.296875 C 1.488281 -0.578125 1.132812 -0.960938 0.875 -1.453125 C 0.613281 -1.953125 0.484375 -2.515625 0.484375 -3.140625 Z M 5.78125 -3.125 C 5.78125 -3.601562 5.679688 -4.015625 5.484375 -4.359375 C 5.296875 -4.710938 5.039062 -4.976562 4.71875 -5.15625 C 4.394531 -5.34375 4.039062 -5.4375 3.65625 -5.4375 C 3.269531 -5.4375 2.914062 -5.34375 2.59375 -5.15625 C 2.28125 -4.976562 2.023438 -4.710938 1.828125 -4.359375 C 1.640625 -4.015625 1.546875 -3.609375 1.546875 -3.140625 C 1.546875 -2.660156 1.640625 -2.242188 1.828125 -1.890625 C 2.023438 -1.535156 2.28125 -1.265625 2.59375 -1.078125 C 2.914062 -0.898438 3.269531 -0.8125 3.65625 -0.8125 C 4.039062 -0.8125 4.394531 -0.898438 4.71875 -1.078125 C 5.039062 -1.265625 5.296875 -1.535156 5.484375 -1.890625 C 5.679688 -2.242188 5.78125 -2.65625 5.78125 -3.125 Z M 5.78125 -3.125 "/></g></g></g><g fill="#ffffff" fill-opacity="1"><g transform="translate(350.213378, 21.932403)"><g><path d="M 6.578125 -3.359375 C 6.578125 -3.160156 6.5625 -2.953125 6.53125 -2.734375 L 1.546875 -2.734375 C 1.585938 -2.117188 1.796875 -1.640625 2.171875 -1.296875 C 2.554688 -0.953125 3.023438 -0.78125 3.578125 -0.78125 C 4.023438 -0.78125 4.398438 -0.882812 4.703125 -1.09375 C 5.003906 -1.300781 5.210938 -1.578125 5.328125 -1.921875 L 6.453125 -1.921875 C 6.285156 -1.328125 5.945312 -0.835938 5.4375 -0.453125 C 4.9375 -0.078125 4.316406 0.109375 3.578125 0.109375 C 2.984375 0.109375 2.453125 -0.0195312 1.984375 -0.28125 C 1.515625 -0.550781 1.144531 -0.929688 0.875 -1.421875 C 0.613281 -1.921875 0.484375 -2.488281 0.484375 -3.125 C 0.484375 -3.769531 0.613281 -4.335938 0.875 -4.828125 C 1.132812 -5.316406 1.5 -5.691406 1.96875 -5.953125 C 2.4375 -6.210938 2.972656 -6.34375 3.578125 -6.34375 C 4.171875 -6.34375 4.691406 -6.210938 5.140625 -5.953125 C 5.597656 -5.691406 5.953125 -5.335938 6.203125 -4.890625 C 6.453125 -4.441406 6.578125 -3.929688 6.578125 -3.359375 Z M 5.5 -3.578125 C 5.5 -3.972656 5.410156 -4.3125 5.234375 -4.59375 C 5.066406 -4.875 4.832031 -5.085938 4.53125 -5.234375 C 4.226562 -5.390625 3.894531 -5.46875 3.53125 -5.46875 C 3.007812 -5.46875 2.5625 -5.300781 2.1875 -4.96875 C 1.820312 -4.632812 1.613281 -4.171875 1.5625 -3.578125 Z M 5.5 -3.578125 "/></g></g></g><g fill="#ffffff" fill-opacity="1"><g transform="translate(357.268637, 21.932403)"><g/></g></g><g fill="#ffffff" fill-opacity="1"><g transform="translate(360.306953, 21.932403)"><g><path d="M 0.484375 -3.140625 C 0.484375 -3.773438 0.613281 -4.332031 0.875 -4.8125 C 1.132812 -5.300781 1.488281 -5.675781 1.9375 -5.9375 C 2.394531 -6.207031 2.90625 -6.34375 3.46875 -6.34375 C 3.945312 -6.34375 4.394531 -6.226562 4.8125 -6 C 5.226562 -5.78125 5.550781 -5.488281 5.78125 -5.125 L 5.78125 -8.421875 L 6.828125 -8.421875 L 6.828125 0 L 5.78125 0 L 5.78125 -1.171875 C 5.570312 -0.796875 5.265625 -0.488281 4.859375 -0.25 C 4.460938 -0.0078125 3.992188 0.109375 3.453125 0.109375 C 2.898438 0.109375 2.394531 -0.0234375 1.9375 -0.296875 C 1.488281 -0.578125 1.132812 -0.960938 0.875 -1.453125 C 0.613281 -1.953125 0.484375 -2.515625 0.484375 -3.140625 Z M 5.78125 -3.125 C 5.78125 -3.601562 5.679688 -4.015625 5.484375 -4.359375 C 5.296875 -4.710938 5.039062 -4.976562 4.71875 -5.15625 C 4.394531 -5.34375 4.039062 -5.4375 3.65625 -5.4375 C 3.269531 -5.4375 2.914062 -5.34375 2.59375 -5.15625 C 2.28125 -4.976562 2.023438 -4.710938 1.828125 -4.359375 C 1.640625 -4.015625 1.546875 -3.609375 1.546875 -3.140625 C 1.546875 -2.660156 1.640625 -2.242188 1.828125 -1.890625 C 2.023438 -1.535156 2.28125 -1.265625 2.59375 -1.078125 C 2.914062 -0.898438 3.269531 -0.8125 3.65625 -0.8125 C 4.039062 -0.8125 4.394531 -0.898438 4.71875 -1.078125 C 5.039062 -1.265625 5.296875 -1.535156 5.484375 -1.890625 C 5.679688 -2.242188 5.78125 -2.65625 5.78125 -3.125 Z M 5.78125 -3.125 "/></g></g></g><g fill="#ffffff" fill-opacity="1"><g transform="translate(367.999461, 21.932403)"><g><path d="M 6.578125 -3.359375 C 6.578125 -3.160156 6.5625 -2.953125 6.53125 -2.734375 L 1.546875 -2.734375 C 1.585938 -2.117188 1.796875 -1.640625 2.171875 -1.296875 C 2.554688 -0.953125 3.023438 -0.78125 3.578125 -0.78125 C 4.023438 -0.78125 4.398438 -0.882812 4.703125 -1.09375 C 5.003906 -1.300781 5.210938 -1.578125 5.328125 -1.921875 L 6.453125 -1.921875 C 6.285156 -1.328125 5.945312 -0.835938 5.4375 -0.453125 C 4.9375 -0.078125 4.316406 0.109375 3.578125 0.109375 C 2.984375 0.109375 2.453125 -0.0195312 1.984375 -0.28125 C 1.515625 -0.550781 1.144531 -0.929688 0.875 -1.421875 C 0.613281 -1.921875 0.484375 -2.488281 0.484375 -3.125 C 0.484375 -3.769531 0.613281 -4.335938 0.875 -4.828125 C 1.132812 -5.316406 1.5 -5.691406 1.96875 -5.953125 C 2.4375 -6.210938 2.972656 -6.34375 3.578125 -6.34375 C 4.171875 -6.34375 4.691406 -6.210938 5.140625 -5.953125 C 5.597656 -5.691406 5.953125 -5.335938 6.203125 -4.890625 C 6.453125 -4.441406 6.578125 -3.929688 6.578125 -3.359375 Z M 5.5 -3.578125 C 5.5 -3.972656 5.410156 -4.3125 5.234375 -4.59375 C 5.066406 -4.875 4.832031 -5.085938 4.53125 -5.234375 C 4.226562 -5.390625 3.894531 -5.46875 3.53125 -5.46875 C 3.007812 -5.46875 2.5625 -5.300781 2.1875 -4.96875 C 1.820312 -4.632812 1.613281 -4.171875 1.5625 -3.578125 Z M 5.5 -3.578125 "/></g></g></g><g fill="#ffffff" fill-opacity="1"><g transform="translate(375.05472, 21.932403)"><g><path d="M 3.09375 0.109375 C 2.613281 0.109375 2.179688 0.0234375 1.796875 -0.140625 C 1.421875 -0.304688 1.117188 -0.535156 0.890625 -0.828125 C 0.671875 -1.117188 0.550781 -1.453125 0.53125 -1.828125 L 1.609375 -1.828125 C 1.640625 -1.515625 1.785156 -1.257812 2.046875 -1.0625 C 2.304688 -0.875 2.648438 -0.78125 3.078125 -0.78125 C 3.472656 -0.78125 3.78125 -0.863281 4 -1.03125 C 4.226562 -1.207031 4.34375 -1.429688 4.34375 -1.703125 C 4.34375 -1.972656 4.222656 -2.171875 3.984375 -2.296875 C 3.742188 -2.429688 3.367188 -2.566406 2.859375 -2.703125 C 2.398438 -2.816406 2.019531 -2.9375 1.71875 -3.0625 C 1.425781 -3.1875 1.175781 -3.375 0.96875 -3.625 C 0.757812 -3.875 0.65625 -4.203125 0.65625 -4.609375 C 0.65625 -4.921875 0.75 -5.207031 0.9375 -5.46875 C 1.132812 -5.738281 1.40625 -5.953125 1.75 -6.109375 C 2.101562 -6.265625 2.503906 -6.34375 2.953125 -6.34375 C 3.640625 -6.34375 4.195312 -6.164062 4.625 -5.8125 C 5.050781 -5.46875 5.28125 -4.992188 5.3125 -4.390625 L 4.265625 -4.390625 C 4.242188 -4.710938 4.113281 -4.972656 3.875 -5.171875 C 3.632812 -5.367188 3.316406 -5.46875 2.921875 -5.46875 C 2.546875 -5.46875 2.25 -5.382812 2.03125 -5.21875 C 1.8125 -5.0625 1.703125 -4.859375 1.703125 -4.609375 C 1.703125 -4.398438 1.765625 -4.226562 1.890625 -4.09375 C 2.023438 -3.957031 2.191406 -3.847656 2.390625 -3.765625 C 2.597656 -3.691406 2.878906 -3.609375 3.234375 -3.515625 C 3.679688 -3.390625 4.046875 -3.265625 4.328125 -3.140625 C 4.609375 -3.023438 4.847656 -2.847656 5.046875 -2.609375 C 5.253906 -2.378906 5.359375 -2.078125 5.359375 -1.703125 C 5.359375 -1.359375 5.265625 -1.046875 5.078125 -0.765625 C 4.890625 -0.492188 4.625 -0.28125 4.28125 -0.125 C 3.9375 0.03125 3.539062 0.109375 3.09375 0.109375 Z M 3.09375 0.109375 "/></g></g></g><g fill="#ffffff" fill-opacity="1"><g transform="translate(380.994791, 21.932403)"><g><path d="M 0.484375 -3.125 C 0.484375 -3.769531 0.613281 -4.332031 0.875 -4.8125 C 1.132812 -5.300781 1.492188 -5.675781 1.953125 -5.9375 C 2.410156 -6.207031 2.9375 -6.34375 3.53125 -6.34375 C 4.300781 -6.34375 4.929688 -6.15625 5.421875 -5.78125 C 5.921875 -5.414062 6.25 -4.898438 6.40625 -4.234375 L 5.296875 -4.234375 C 5.191406 -4.617188 4.984375 -4.921875 4.671875 -5.140625 C 4.367188 -5.359375 3.988281 -5.46875 3.53125 -5.46875 C 2.9375 -5.46875 2.457031 -5.265625 2.09375 -4.859375 C 1.726562 -4.453125 1.546875 -3.875 1.546875 -3.125 C 1.546875 -2.375 1.726562 -1.796875 2.09375 -1.390625 C 2.457031 -0.984375 2.9375 -0.78125 3.53125 -0.78125 C 3.988281 -0.78125 4.367188 -0.882812 4.671875 -1.09375 C 4.972656 -1.300781 5.179688 -1.601562 5.296875 -2 L 6.40625 -2 C 6.238281 -1.363281 5.90625 -0.851562 5.40625 -0.46875 C 4.90625 -0.0820312 4.28125 0.109375 3.53125 0.109375 C 2.9375 0.109375 2.410156 -0.0195312 1.953125 -0.28125 C 1.492188 -0.550781 1.132812 -0.929688 0.875 -1.421875 C 0.613281 -1.910156 0.484375 -2.476562 0.484375 -3.125 Z M 0.484375 -3.125 "/></g></g></g><g fill="#ffffff" fill-opacity="1"><g transform="translate(387.902128, 21.932403)"><g><path d="M 6.40625 -6.234375 L 6.40625 0 L 5.375 0 L 5.375 -0.921875 C 5.175781 -0.597656 4.898438 -0.347656 4.546875 -0.171875 C 4.191406 0.00390625 3.804688 0.09375 3.390625 0.09375 C 2.898438 0.09375 2.457031 -0.00390625 2.0625 -0.203125 C 1.675781 -0.410156 1.367188 -0.710938 1.140625 -1.109375 C 0.921875 -1.515625 0.8125 -2.003906 0.8125 -2.578125 L 0.8125 -6.234375 L 1.84375 -6.234375 L 1.84375 -2.71875 C 1.84375 -2.101562 2 -1.628906 2.3125 -1.296875 C 2.625 -0.972656 3.050781 -0.8125 3.59375 -0.8125 C 4.144531 -0.8125 4.578125 -0.976562 4.890625 -1.3125 C 5.210938 -1.65625 5.375 -2.15625 5.375 -2.8125 L 5.375 -6.234375 Z M 6.40625 -6.234375 "/></g></g></g><g fill="#ffffff" fill-opacity="1"><g transform="translate(395.184975, 21.932403)"><g><path d="M 6.578125 -3.359375 C 6.578125 -3.160156 6.5625 -2.953125 6.53125 -2.734375 L 1.546875 -2.734375 C 1.585938 -2.117188 1.796875 -1.640625 2.171875 -1.296875 C 2.554688 -0.953125 3.023438 -0.78125 3.578125 -0.78125 C 4.023438 -0.78125 4.398438 -0.882812 4.703125 -1.09375 C 5.003906 -1.300781 5.210938 -1.578125 5.328125 -1.921875 L 6.453125 -1.921875 C 6.285156 -1.328125 5.945312 -0.835938 5.4375 -0.453125 C 4.9375 -0.078125 4.316406 0.109375 3.578125 0.109375 C 2.984375 0.109375 2.453125 -0.0195312 1.984375 -0.28125 C 1.515625 -0.550781 1.144531 -0.929688 0.875 -1.421875 C 0.613281 -1.921875 0.484375 -2.488281 0.484375 -3.125 C 0.484375 -3.769531 0.613281 -4.335938 0.875 -4.828125 C 1.132812 -5.316406 1.5 -5.691406 1.96875 -5.953125 C 2.4375 -6.210938 2.972656 -6.34375 3.578125 -6.34375 C 4.171875 -6.34375 4.691406 -6.210938 5.140625 -5.953125 C 5.597656 -5.691406 5.953125 -5.335938 6.203125 -4.890625 C 6.453125 -4.441406 6.578125 -3.929688 6.578125 -3.359375 Z M 5.5 -3.578125 C 5.5 -3.972656 5.410156 -4.3125 5.234375 -4.59375 C 5.066406 -4.875 4.832031 -5.085938 4.53125 -5.234375 C 4.226562 -5.390625 3.894531 -5.46875 3.53125 -5.46875 C 3.007812 -5.46875 2.5625 -5.300781 2.1875 -4.96875 C 1.820312 -4.632812 1.613281 -4.171875 1.5625 -3.578125 Z M 5.5 -3.578125 "/></g></g></g><g fill="#ffffff" fill-opacity="1"><g transform="translate(402.240235, 21.932403)"><g><path d="M 3.921875 -6.359375 C 4.679688 -6.359375 5.296875 -6.128906 5.765625 -5.671875 C 6.234375 -5.210938 6.46875 -4.546875 6.46875 -3.671875 L 6.46875 0 L 5.4375 0 L 5.4375 -3.53125 C 5.4375 -4.15625 5.28125 -4.628906 4.96875 -4.953125 C 4.664062 -5.285156 4.242188 -5.453125 3.703125 -5.453125 C 3.148438 -5.453125 2.710938 -5.28125 2.390625 -4.9375 C 2.066406 -4.601562 1.90625 -4.109375 1.90625 -3.453125 L 1.90625 0 L 0.875 0 L 0.875 -6.234375 L 1.90625 -6.234375 L 1.90625 -5.359375 C 2.113281 -5.671875 2.394531 -5.914062 2.75 -6.09375 C 3.101562 -6.269531 3.492188 -6.359375 3.921875 -6.359375 Z M 3.921875 -6.359375 "/></g></g></g><g fill="#ffffff" fill-opacity="1"><g transform="translate(409.523081, 21.932403)"><g><path d="M 2.140625 -5.390625 L 2.140625 -1.703125 C 2.140625 -1.398438 2.203125 -1.1875 2.328125 -1.0625 C 2.460938 -0.9375 2.6875 -0.875 3 -0.875 L 3.765625 -0.875 L 3.765625 0 L 2.84375 0 C 2.257812 0 1.820312 -0.128906 1.53125 -0.390625 C 1.25 -0.660156 1.109375 -1.097656 1.109375 -1.703125 L 1.109375 -5.390625 L 0.296875 -5.390625 L 0.296875 -6.234375 L 1.109375 -6.234375 L 1.109375 -7.8125 L 2.140625 -7.8125 L 2.140625 -6.234375 L 3.765625 -6.234375 L 3.765625 -5.390625 Z M 2.140625 -5.390625 "/></g></g></g><g fill="#ffffff" fill-opacity="1"><g transform="translate(413.665202, 21.932403)"><g><path d="M 3.59375 0.109375 C 3.007812 0.109375 2.476562 -0.0195312 2 -0.28125 C 1.53125 -0.550781 1.160156 -0.929688 0.890625 -1.421875 C 0.617188 -1.921875 0.484375 -2.488281 0.484375 -3.125 C 0.484375 -3.769531 0.625 -4.335938 0.90625 -4.828125 C 1.1875 -5.316406 1.5625 -5.691406 2.03125 -5.953125 C 2.507812 -6.210938 3.046875 -6.34375 3.640625 -6.34375 C 4.234375 -6.34375 4.769531 -6.210938 5.25 -5.953125 C 5.726562 -5.691406 6.101562 -5.316406 6.375 -4.828125 C 6.65625 -4.335938 6.796875 -3.769531 6.796875 -3.125 C 6.796875 -2.488281 6.65625 -1.921875 6.375 -1.421875 C 6.09375 -0.929688 5.707031 -0.550781 5.21875 -0.28125 C 4.726562 -0.0195312 4.1875 0.109375 3.59375 0.109375 Z M 3.59375 -0.8125 C 3.96875 -0.8125 4.316406 -0.894531 4.640625 -1.0625 C 4.972656 -1.238281 5.238281 -1.5 5.4375 -1.84375 C 5.632812 -2.195312 5.734375 -2.625 5.734375 -3.125 C 5.734375 -3.632812 5.632812 -4.0625 5.4375 -4.40625 C 5.25 -4.757812 4.992188 -5.019531 4.671875 -5.1875 C 4.347656 -5.351562 4.003906 -5.4375 3.640625 -5.4375 C 3.253906 -5.4375 2.90625 -5.351562 2.59375 -5.1875 C 2.28125 -5.019531 2.023438 -4.757812 1.828125 -4.40625 C 1.640625 -4.0625 1.546875 -3.632812 1.546875 -3.125 C 1.546875 -2.625 1.640625 -2.195312 1.828125 -1.84375 C 2.015625 -1.5 2.265625 -1.238281 2.578125 -1.0625 C 2.890625 -0.894531 3.226562 -0.8125 3.59375 -0.8125 Z M 3.59375 -0.8125 "/></g></g></g><g fill="#ffffff" fill-opacity="1"><g transform="translate(420.953677, 21.932403)"><g/></g></g><g fill="#ffffff" fill-opacity="1"><g transform="translate(423.991993, 21.932403)"><g/></g></g><g fill="#ffffff" fill-opacity="1"><g transform="translate(427.030308, 21.932403)"><g/></g></g><g fill="#ffffff" fill-opacity="1"><g transform="translate(430.068624, 21.932403)"><g/></g></g><g fill="#ffffff" fill-opacity="1"><g transform="translate(433.10694, 21.932403)"><g/></g></g><g fill="#ffffff" fill-opacity="1"><g transform="translate(436.145256, 21.932403)"><g/></g></g><g fill="#ffffff" fill-opacity="1"><g transform="translate(439.190977, 21.932403)"><g><path d="M 0.484375 -3.96875 C 0.484375 -4.75 0.65625 -5.445312 1 -6.0625 C 1.351562 -6.6875 1.832031 -7.171875 2.4375 -7.515625 C 3.039062 -7.867188 3.710938 -8.046875 4.453125 -8.046875 C 5.316406 -8.046875 6.070312 -7.832031 6.71875 -7.40625 C 7.363281 -6.988281 7.835938 -6.398438 8.140625 -5.640625 L 6.890625 -5.640625 C 6.671875 -6.117188 6.351562 -6.484375 5.9375 -6.734375 C 5.519531 -6.992188 5.023438 -7.125 4.453125 -7.125 C 3.898438 -7.125 3.398438 -6.992188 2.953125 -6.734375 C 2.515625 -6.484375 2.171875 -6.117188 1.921875 -5.640625 C 1.671875 -5.171875 1.546875 -4.613281 1.546875 -3.96875 C 1.546875 -3.34375 1.671875 -2.789062 1.921875 -2.3125 C 2.171875 -1.84375 2.515625 -1.476562 2.953125 -1.21875 C 3.398438 -0.957031 3.898438 -0.828125 4.453125 -0.828125 C 5.023438 -0.828125 5.519531 -0.953125 5.9375 -1.203125 C 6.351562 -1.460938 6.671875 -1.832031 6.890625 -2.3125 L 8.140625 -2.3125 C 7.835938 -1.550781 7.363281 -0.960938 6.71875 -0.546875 C 6.070312 -0.140625 5.316406 0.0625 4.453125 0.0625 C 3.710938 0.0625 3.039062 -0.109375 2.4375 -0.453125 C 1.832031 -0.796875 1.351562 -1.273438 1 -1.890625 C 0.65625 -2.503906 0.484375 -3.195312 0.484375 -3.96875 Z M 0.484375 -3.96875 "/></g></g></g><g fill="#ffffff" fill-opacity="1"><g transform="translate(447.975906, 21.932403)"><g><path d="M 3.59375 0.109375 C 3.007812 0.109375 2.476562 -0.0195312 2 -0.28125 C 1.53125 -0.550781 1.160156 -0.929688 0.890625 -1.421875 C 0.617188 -1.921875 0.484375 -2.488281 0.484375 -3.125 C 0.484375 -3.769531 0.625 -4.335938 0.90625 -4.828125 C 1.1875 -5.316406 1.5625 -5.691406 2.03125 -5.953125 C 2.507812 -6.210938 3.046875 -6.34375 3.640625 -6.34375 C 4.234375 -6.34375 4.769531 -6.210938 5.25 -5.953125 C 5.726562 -5.691406 6.101562 -5.316406 6.375 -4.828125 C 6.65625 -4.335938 6.796875 -3.769531 6.796875 -3.125 C 6.796875 -2.488281 6.65625 -1.921875 6.375 -1.421875 C 6.09375 -0.929688 5.707031 -0.550781 5.21875 -0.28125 C 4.726562 -0.0195312 4.1875 0.109375 3.59375 0.109375 Z M 3.59375 -0.8125 C 3.96875 -0.8125 4.316406 -0.894531 4.640625 -1.0625 C 4.972656 -1.238281 5.238281 -1.5 5.4375 -1.84375 C 5.632812 -2.195312 5.734375 -2.625 5.734375 -3.125 C 5.734375 -3.632812 5.632812 -4.0625 5.4375 -4.40625 C 5.25 -4.757812 4.992188 -5.019531 4.671875 -5.1875 C 4.347656 -5.351562 4.003906 -5.4375 3.640625 -5.4375 C 3.253906 -5.4375 2.90625 -5.351562 2.59375 -5.1875 C 2.28125 -5.019531 2.023438 -4.757812 1.828125 -4.40625 C 1.640625 -4.0625 1.546875 -3.632812 1.546875 -3.125 C 1.546875 -2.625 1.640625 -2.195312 1.828125 -1.84375 C 2.015625 -1.5 2.265625 -1.238281 2.578125 -1.0625 C 2.890625 -0.894531 3.226562 -0.8125 3.59375 -0.8125 Z M 3.59375 -0.8125 "/></g></g></g><g fill="#ffffff" fill-opacity="1"><g transform="translate(455.258752, 21.932403)"><g><path d="M 8.390625 -6.359375 C 8.867188 -6.359375 9.296875 -6.253906 9.671875 -6.046875 C 10.054688 -5.847656 10.359375 -5.546875 10.578125 -5.140625 C 10.796875 -4.742188 10.90625 -4.253906 10.90625 -3.671875 L 10.90625 0 L 9.890625 0 L 9.890625 -3.53125 C 9.890625 -4.15625 9.734375 -4.628906 9.421875 -4.953125 C 9.117188 -5.285156 8.703125 -5.453125 8.171875 -5.453125 C 7.640625 -5.453125 7.210938 -5.28125 6.890625 -4.9375 C 6.566406 -4.59375 6.40625 -4.09375 6.40625 -3.4375 L 6.40625 0 L 5.390625 0 L 5.390625 -3.53125 C 5.390625 -4.15625 5.234375 -4.628906 4.921875 -4.953125 C 4.617188 -5.285156 4.203125 -5.453125 3.671875 -5.453125 C 3.140625 -5.453125 2.710938 -5.28125 2.390625 -4.9375 C 2.066406 -4.59375 1.90625 -4.09375 1.90625 -3.4375 L 1.90625 0 L 0.875 0 L 0.875 -6.234375 L 1.90625 -6.234375 L 1.90625 -5.34375 C 2.113281 -5.664062 2.390625 -5.914062 2.734375 -6.09375 C 3.078125 -6.269531 3.460938 -6.359375 3.890625 -6.359375 C 4.410156 -6.359375 4.867188 -6.238281 5.265625 -6 C 5.671875 -5.769531 5.972656 -5.425781 6.171875 -4.96875 C 6.347656 -5.40625 6.632812 -5.742188 7.03125 -5.984375 C 7.4375 -6.234375 7.890625 -6.359375 8.390625 -6.359375 Z M 8.390625 -6.359375 "/></g></g></g><g fill="#ffffff" fill-opacity="1"><g transform="translate(466.979587, 21.932403)"><g><path d="M 1.90625 -5.09375 C 2.113281 -5.445312 2.421875 -5.742188 2.828125 -5.984375 C 3.234375 -6.222656 3.707031 -6.34375 4.25 -6.34375 C 4.800781 -6.34375 5.300781 -6.207031 5.75 -5.9375 C 6.207031 -5.675781 6.5625 -5.300781 6.8125 -4.8125 C 7.070312 -4.332031 7.203125 -3.773438 7.203125 -3.140625 C 7.203125 -2.515625 7.070312 -1.953125 6.8125 -1.453125 C 6.5625 -0.960938 6.207031 -0.578125 5.75 -0.296875 C 5.300781 -0.0234375 4.800781 0.109375 4.25 0.109375 C 3.71875 0.109375 3.25 -0.0078125 2.84375 -0.25 C 2.4375 -0.488281 2.125 -0.789062 1.90625 -1.15625 L 1.90625 2.96875 L 0.875 2.96875 L 0.875 -6.234375 L 1.90625 -6.234375 Z M 6.15625 -3.140625 C 6.15625 -3.609375 6.054688 -4.015625 5.859375 -4.359375 C 5.671875 -4.710938 5.414062 -4.976562 5.09375 -5.15625 C 4.769531 -5.34375 4.414062 -5.4375 4.03125 -5.4375 C 3.65625 -5.4375 3.304688 -5.34375 2.984375 -5.15625 C 2.660156 -4.976562 2.398438 -4.710938 2.203125 -4.359375 C 2.003906 -4.003906 1.90625 -3.59375 1.90625 -3.125 C 1.90625 -2.65625 2.003906 -2.242188 2.203125 -1.890625 C 2.398438 -1.535156 2.660156 -1.265625 2.984375 -1.078125 C 3.304688 -0.898438 3.65625 -0.8125 4.03125 -0.8125 C 4.414062 -0.8125 4.769531 -0.898438 5.09375 -1.078125 C 5.414062 -1.265625 5.671875 -1.535156 5.859375 -1.890625 C 6.054688 -2.242188 6.15625 -2.660156 6.15625 -3.140625 Z M 6.15625 -3.140625 "/></g></g></g><g fill="#ffffff" fill-opacity="1"><g transform="translate(474.672095, 21.932403)"><g><path d="M 1.90625 -5.234375 C 2.09375 -5.585938 2.351562 -5.863281 2.6875 -6.0625 C 3.03125 -6.257812 3.445312 -6.359375 3.9375 -6.359375 L 3.9375 -5.28125 L 3.65625 -5.28125 C 2.488281 -5.28125 1.90625 -4.648438 1.90625 -3.390625 L 1.90625 0 L 0.875 0 L 0.875 -6.234375 L 1.90625 -6.234375 Z M 1.90625 -5.234375 "/></g></g></g><g fill="#ffffff" fill-opacity="1"><g transform="translate(478.916625, 21.932403)"><g><path d="M 0.484375 -3.140625 C 0.484375 -3.773438 0.613281 -4.332031 0.875 -4.8125 C 1.132812 -5.300781 1.488281 -5.675781 1.9375 -5.9375 C 2.394531 -6.207031 2.898438 -6.34375 3.453125 -6.34375 C 3.992188 -6.34375 4.46875 -6.222656 4.875 -5.984375 C 5.28125 -5.753906 5.582031 -5.460938 5.78125 -5.109375 L 5.78125 -6.234375 L 6.828125 -6.234375 L 6.828125 0 L 5.78125 0 L 5.78125 -1.15625 C 5.570312 -0.789062 5.265625 -0.488281 4.859375 -0.25 C 4.453125 -0.0078125 3.976562 0.109375 3.4375 0.109375 C 2.882812 0.109375 2.382812 -0.0234375 1.9375 -0.296875 C 1.488281 -0.578125 1.132812 -0.960938 0.875 -1.453125 C 0.613281 -1.953125 0.484375 -2.515625 0.484375 -3.140625 Z M 5.78125 -3.125 C 5.78125 -3.601562 5.679688 -4.015625 5.484375 -4.359375 C 5.296875 -4.710938 5.039062 -4.976562 4.71875 -5.15625 C 4.394531 -5.34375 4.039062 -5.4375 3.65625 -5.4375 C 3.269531 -5.4375 2.914062 -5.34375 2.59375 -5.15625 C 2.28125 -4.976562 2.023438 -4.710938 1.828125 -4.359375 C 1.640625 -4.015625 1.546875 -3.609375 1.546875 -3.140625 C 1.546875 -2.660156 1.640625 -2.242188 1.828125 -1.890625 C 2.023438 -1.535156 2.28125 -1.265625 2.59375 -1.078125 C 2.914062 -0.898438 3.269531 -0.8125 3.65625 -0.8125 C 4.039062 -0.8125 4.394531 -0.898438 4.71875 -1.078125 C 5.039062 -1.265625 5.296875 -1.535156 5.484375 -1.890625 C 5.679688 -2.242188 5.78125 -2.65625 5.78125 -3.125 Z M 5.78125 -3.125 "/></g></g></g><g fill="#ffffff" fill-opacity="1"><g transform="translate(486.609133, 21.932403)"><g><path d="M 1.90625 -5.234375 C 2.09375 -5.585938 2.351562 -5.863281 2.6875 -6.0625 C 3.03125 -6.257812 3.445312 -6.359375 3.9375 -6.359375 L 3.9375 -5.28125 L 3.65625 -5.28125 C 2.488281 -5.28125 1.90625 -4.648438 1.90625 -3.390625 L 1.90625 0 L 0.875 0 L 0.875 -6.234375 L 1.90625 -6.234375 Z M 1.90625 -5.234375 "/></g></g></g><g fill="#ffffff" fill-opacity="1"><g transform="translate(490.853663, 21.932403)"><g/></g></g><g fill="#ffffff" fill-opacity="1"><g transform="translate(493.891979, 21.932403)"><g><path d="M 1.078125 -6.78125 L 2.375 -6.78125 L 5.140625 -4.171875 L 2.375 -1.546875 L 1.078125 -1.546875 L 3.828125 -4.171875 Z M 1.078125 -6.78125 "/></g></g></g></svg>